<svg width="53" height="55" viewBox="0 0 53 55" fill="none" xmlns="http://www.w3.org/2000/svg">
<path fill-rule="evenodd" clip-rule="evenodd" d="M32.478 0C42.5166 0 49.1712 6.16972 51.3515 19.4495C51.3515 19.4495 52.0329 24.4266 52.0783 25.5505V30.9404C51.6695 38.1651 49.3529 49.3807 39.2915 52.867C38.0878 53.2798 36.8386 53.6239 35.5895 53.8532C35.3762 53.884 35.1362 53.919 34.8862 53.9554C33.8315 54.1091 32.5978 54.289 32.4325 54.289H28.5942L28.4326 54.2725C25.1152 53.9331 21.5009 53.5633 18.2603 52.6605C16.2617 52.1101 14.3312 51.3991 12.4461 50.5275C5.33729 47.2477 2.58915 39.5872 1.43085 34.1973C1.22644 33.2798 0 27.7294 0 26.0321V24.4037C0.0681356 22.4771 0.476949 20.5963 1.22644 18.8073C6.49559 6.23853 22.621 0 32.478 0ZM37.7045 22.1875C38.1401 21.9852 38.5716 21.7848 38.8373 21.4449C39.5186 20.4358 42.3122 14.5413 42.2895 12.4083C42.2895 12.0642 42.2895 11.4908 41.6081 11.4908C39.6776 11.4908 33.2501 15.0459 32.3644 15.6193C30.5929 16.6055 28.6623 18.0963 27.0952 19.3807C24.0291 21.8578 21.1447 25.5505 19.0325 28.3257L16.239 32.2936C15.9106 32.9016 15.5327 33.4513 15.1501 34.008C14.8976 34.3753 14.6431 34.7456 14.3993 35.1376C13.0654 37.2704 11.8223 39.5099 10.5958 41.7194C10.3187 42.2187 10.0424 42.7164 9.76608 43.211H10.1522C11.2423 43.211 14.1949 41.789 14.8081 40.5734C15.044 40.1631 15.2119 39.7069 15.3771 39.2579C15.4982 38.9288 15.6179 38.6034 15.762 38.3027C15.8529 38.0505 15.9891 37.7982 16.1254 37.5688C16.239 37.4082 16.3298 37.2248 16.3979 37.0413C16.4888 36.8578 16.6023 36.6972 16.7159 36.5367C17.1247 36.1009 18.0105 35.8257 18.5556 35.8257C18.6681 35.8257 19.9232 35.9995 21.0515 36.1557C21.9728 36.2832 22.8096 36.3991 22.8708 36.3991C24.7105 36.3991 28.4807 35.4128 29.4345 33.0734C28.0037 32.7752 26.7318 32.0183 25.8007 30.8716C25.8688 30.8027 25.9369 30.8027 26.0732 30.8027C26.1754 30.8027 26.7034 30.8372 27.2315 30.8716C27.7596 30.906 28.2876 30.9404 28.3898 30.9404C31.7284 30.9404 34.1359 30.7339 36.5888 25.5505C36.0437 25.6193 35.1579 25.6881 35.0217 25.6881C33.7044 25.6881 32.8868 25.4816 31.524 24.0596C31.9783 23.9449 32.4779 23.8532 32.9549 23.7844C34.4766 23.5321 35.9529 23.0505 37.3383 22.3624C37.4583 22.3018 37.5815 22.2446 37.7045 22.1875Z" fill="#C62322"/>
</svg>
