<svg width="64" height="64" viewBox="0 0 64 64" fill="none" xmlns="http://www.w3.org/2000/svg">
    <path fill-rule="evenodd" clip-rule="evenodd"
        d="M64 32C64 49.6731 49.6731 64 32 64C14.3269 64 0 49.6731 0 32C0 14.3269 14.3269 0 32 0C49.6731 0 64 14.3269 64 32ZM22.069 20.8621C22.069 20.3098 22.5167 19.8621 23.069 19.8621H27.6897C28.242 19.8621 28.6897 20.3098 28.6897 20.8621V40.931C28.6897 41.4833 28.242 41.931 27.6897 41.931H23.069C22.5167 41.931 22.069 41.4833 22.069 40.931V20.8621ZM36.3103 19.8621C35.7581 19.8621 35.3103 20.3098 35.3103 20.8621V40.931C35.3103 41.4833 35.7581 41.931 36.3103 41.931H40.931C41.4833 41.931 41.931 41.4833 41.931 40.931V20.8621C41.931 20.3098 41.4833 19.8621 40.931 19.8621H36.3103Z"
        fill="white" />
</svg>